<svg width="136" height="102" viewBox="0 0 136 102" fill="none" xmlns="http://www.w3.org/2000/svg">
<g clip-path="url(#clip0_12_72)">
<path d="M36.4999 39.1621C36.8982 39.1621 37.3963 38.8634 37.9937 38.2662C38.5911 37.6691 39.1989 36.9722 39.8195 36.176C40.4387 35.3798 41.0247 34.5616 41.5791 33.7209C42.132 32.8809 42.5634 32.2175 42.8737 31.73C43.6257 30.5357 43.5378 29.6295 42.6083 29.0092C41.988 28.5677 41.2691 28.1696 40.4504 27.8149C39.631 27.4613 39.045 27.2623 38.6913 27.2178C38.2484 27.2178 37.7173 27.8381 37.0977 29.0758C36.8758 29.4739 36.5441 30.2267 36.102 31.3319C35.6592 32.4383 35.3054 33.5777 35.04 34.7496C34.7746 35.9225 34.7183 36.9623 34.874 37.8685C35.0279 38.7754 35.5705 39.2067 36.4999 39.1621Z" fill="white"/>
<path d="M135.9 47.4776C135.767 47.2786 135.602 47.1355 135.403 47.0464C135.203 46.9585 134.981 46.9585 134.738 47.0464C134.495 47.1355 134.329 47.3117 134.24 47.5774C133.178 50.2761 131.884 52.6536 130.357 54.7107C128.83 56.7678 127.181 58.6155 125.411 60.2513L125.543 59.6542C126.03 57.575 126.572 55.3638 127.17 53.0183C127.768 50.6742 128.42 48.3298 129.129 45.9846C129.349 45.3209 129.57 44.7682 129.793 44.3256C129.925 44.1049 130.013 43.8723 130.058 43.6288C130.102 43.3863 130.013 43.1758 129.793 42.9985C129.349 42.6449 128.685 42.2354 127.801 41.7707C126.915 41.3064 126.141 41.0739 125.477 41.0739C125.079 41.0739 124.768 41.362 124.548 41.9363C124.193 42.7329 123.872 43.5291 123.585 44.3253C123.297 45.1214 123.043 45.9405 122.821 46.7804C122.777 46.9578 122.732 47.1237 122.689 47.2782C122.644 47.4339 122.599 47.5998 122.556 47.776C122.157 48.9269 121.626 50.4306 120.962 52.2883C120.298 54.1463 119.568 55.9495 118.771 57.6964C117.975 59.4445 117.156 60.9478 116.315 62.2087C115.474 63.4692 114.699 64.0995 113.992 64.0995C113.593 64.0995 113.294 63.8901 113.095 63.4692C112.896 63.049 112.884 62.4633 113.062 61.7105C113.328 60.5162 113.626 59.2119 113.958 57.7954C114.29 56.38 114.655 54.9422 115.054 53.4818C115.452 52.0219 115.883 50.5734 116.348 49.1352C116.813 47.698 117.288 46.3378 117.776 45.0541C117.864 44.7005 118.019 44.3356 118.241 43.9592C118.462 43.5839 118.395 43.2623 118.042 42.997C117.82 42.8208 117.543 42.6214 117.211 42.3999C116.879 42.1791 116.515 41.9687 116.116 41.7693C115.718 41.5702 115.308 41.4043 114.888 41.2715C114.466 41.139 114.102 41.0724 113.792 41.0724C113.394 41.0724 113.062 41.3605 112.796 41.9348C111.757 44.3311 110.828 46.9916 110.006 49.91C109.374 50.605 108.669 51.2437 107.884 51.8221C107.042 52.4425 106.146 52.973 105.195 53.4149C104.242 53.8575 103.346 54.1448 102.506 54.2777C102.948 52.4193 103.412 50.573 103.9 48.7367C104.387 46.9015 104.884 45.1763 105.394 43.5611C105.902 41.9466 106.4 40.4867 106.888 39.1813C107.375 37.877 107.861 36.8037 108.348 35.963C108.481 35.7423 108.614 35.5546 108.747 35.399C108.88 35.2444 109.034 35.0568 109.212 34.8349C109.3 34.747 109.344 34.6359 109.344 34.5031C109.344 34.2378 109.101 33.9504 108.614 33.6407C108.127 33.332 107.563 33.0435 106.921 32.7782C106.279 32.513 105.637 32.2804 104.996 32.0814C104.353 31.8823 103.878 31.7826 103.568 31.7826C103.213 31.7826 102.805 32.2035 102.34 33.0435C101.875 33.8846 101.377 35.0344 100.846 36.4943C99.8273 39.3707 98.8761 42.4231 97.9915 45.652C97.6492 46.9 97.3241 48.1609 97.0087 49.4284C96.9174 49.541 96.8298 49.6536 96.7304 49.7662C96.0663 50.5189 95.3131 51.204 94.4731 51.8232C93.6316 52.4436 92.7353 52.9741 91.7841 53.416C90.8318 53.8586 89.9355 54.146 89.0955 54.2788C89.5372 52.4204 90.0017 50.5741 90.4895 48.7378C90.9761 46.9026 91.4738 45.1774 91.9833 43.5622C92.4916 41.9477 92.9897 40.4878 93.4774 39.1824C93.964 37.8781 94.4503 36.8048 94.9377 35.9641C95.0706 35.7434 95.2035 35.5557 95.3363 35.4001C95.4692 35.2456 95.6238 35.0579 95.8013 34.836C95.8892 34.7481 95.9338 34.637 95.9338 34.5042C95.9338 34.2389 95.6901 33.9516 95.2038 33.6418C94.7165 33.3331 94.1521 33.0446 93.5105 32.7793C92.8686 32.5141 92.2262 32.2815 91.5853 32.0825C90.943 31.8834 90.467 31.7837 90.1578 31.7837C89.803 31.7837 89.3944 32.2046 88.9294 33.0446C88.4645 33.8857 87.9668 35.0355 87.4357 36.4954C86.4167 39.3719 85.4656 42.4242 84.581 45.6531C84.1286 47.3025 83.7001 48.97 83.2941 50.654C82.8818 51.3619 82.4427 52.0539 81.9586 52.7202C80.7851 54.3354 79.4691 55.7843 78.0085 57.0666C78.6276 55.5632 79.1039 54.0142 79.436 52.4215C79.768 50.8287 79.934 49.2809 79.934 47.7764C79.934 47.0247 79.7345 46.2948 79.3362 45.5865C78.9379 44.8793 78.3953 44.2594 77.7095 43.7285C77.0227 43.1976 76.2154 42.766 75.2863 42.4345C74.3565 42.1026 73.3828 41.9367 72.365 41.9367C71.7009 41.4503 70.9375 41.1188 70.0746 40.9414C69.2118 40.7652 68.4034 40.8535 67.6514 41.2067C66.2342 41.9599 64.9731 43.0099 63.8673 44.3587C62.7604 45.7087 61.8309 47.2238 61.0789 48.9041C60.3253 50.5859 59.7397 52.3332 59.3197 54.1467C58.9556 55.7141 58.7594 57.2112 58.7101 58.6457C58.4259 59.1994 58.134 59.7476 57.8266 60.2848C57.03 61.6782 56.144 62.8842 55.1711 63.9012C54.8163 64.1668 54.5737 64.2996 54.4408 64.2996C53.9096 64.2996 53.4333 63.8795 53.0133 63.0387C52.5922 62.1991 52.2384 61.2252 51.9509 60.1192C51.6627 59.014 51.4418 57.9625 51.2868 56.9669C51.1311 55.9716 51.0546 55.2976 51.0546 54.9433C51.6995 53.3214 52.5229 51.9229 53.3762 50.5373C54.2416 49.1315 55.3625 47.9946 56.3781 46.7256C56.9148 46.0556 57.0105 45.9857 57.46 45.4552C58.0486 44.7605 58.0247 44.6034 58.2172 44.0603C58.4425 43.4257 57.9474 43.0651 57.5274 42.5338C57.1062 42.0029 56.631 41.5831 56.0998 41.2729C55.4358 40.8314 54.739 40.7983 54.0086 41.1736C53.2783 41.55 52.6032 42.0478 51.9837 42.6666C50.3011 44.3484 48.8632 46.283 47.668 48.4729C46.4731 50.6628 45.3662 52.8196 44.3484 54.9429C44.7901 52.5539 45.311 50.0767 45.9084 47.5108C46.5059 44.9456 47.1368 42.4786 47.8005 40.1118C48.4646 37.7456 49.1386 35.5778 49.8255 33.6086C50.5112 31.6406 51.1864 30.0813 51.8504 28.9305C51.9388 28.7097 52.0496 28.5221 52.1824 28.3664C52.3153 28.2119 52.4699 28.0243 52.6474 27.8024C52.7353 27.7145 52.7799 27.6033 52.7799 27.4705C52.7799 27.2052 52.5362 26.9179 52.0496 26.6081C51.5618 26.2994 51.0089 26.011 50.3898 25.7457C49.7691 25.4804 49.1283 25.2479 48.4646 25.0488C47.8005 24.8498 47.3131 24.7501 47.0039 24.7501C46.5162 24.7501 45.9522 25.4697 45.311 26.9069C44.669 28.3447 43.9935 30.2142 43.286 32.5141C42.5774 34.8147 41.8806 37.4141 41.1948 40.3112C40.5083 43.2093 39.8888 46.1402 39.3359 49.1035C38.9266 51.2945 38.5791 53.4178 38.2912 55.4753C38.2172 55.6302 38.1506 55.7829 38.0748 55.9385C37.3444 57.4426 36.5364 58.8915 35.6515 60.2848C34.7655 61.6782 33.8143 62.8842 32.7968 63.9012C32.5314 64.1668 32.2874 64.2776 32.0665 64.233C31.8445 64.1893 31.7783 63.9243 31.8674 63.4365C32.0882 62.2422 32.3654 60.882 32.6975 59.3558C33.0295 57.8293 33.4164 56.2479 33.8592 54.611C34.3009 52.9748 34.7773 51.3376 35.2867 49.7003C35.7951 48.0641 36.3377 46.5152 36.9134 45.0552C37.0017 44.7016 37.1563 44.3367 37.3783 43.9603C37.5992 43.585 37.5329 43.2634 37.1792 42.9981C36.9572 42.8219 36.6811 42.6225 36.3491 42.401C36.017 42.1802 35.6519 41.9698 35.2536 41.7704C34.8553 41.5713 34.4456 41.4054 34.0256 41.2726C33.6045 41.1401 33.2393 41.0735 32.9301 41.0735C32.5318 41.0735 32.1998 41.3616 31.9344 41.9359C30.7829 44.5905 29.7651 47.566 28.8802 50.8611C27.9945 54.157 27.3087 57.3756 26.8221 60.5162C26.733 60.9589 26.6778 61.3787 26.6561 61.7771C26.6333 62.1752 26.578 62.5961 26.4901 63.0376C26.4455 63.5686 26.5004 64.0991 26.6561 64.6304C26.7779 65.0491 26.9576 65.4395 27.1898 65.8026C26.6314 65.3181 26.0675 64.8114 25.4943 64.265C24.0771 62.9162 22.6614 61.4563 21.2453 59.8856C19.8281 58.3157 18.4341 56.6784 17.0625 54.9749C15.6902 53.2725 14.3841 51.5576 13.1455 49.832C13.942 49.2132 14.7272 48.5608 15.5024 47.8746C16.2762 47.1892 17.0397 46.4923 17.7928 45.7845C19.961 43.7936 22.1085 41.7262 24.2328 39.5801C26.3575 37.4347 28.2268 35.4328 29.8428 33.5744C31.458 31.7164 32.7195 30.1133 33.6269 28.7634C34.5336 27.4142 34.8553 26.5404 34.5899 26.1423C34.4125 25.8767 34.0804 25.5345 33.5942 25.1136C33.1064 24.6938 32.5867 24.2957 32.0338 23.9193C31.4801 23.544 30.9486 23.2452 30.4402 23.0234C29.9311 22.8026 29.5656 22.7581 29.3447 22.8909C29.2557 22.98 29.189 23.0679 29.1456 23.1562C29.0565 23.3781 28.9899 23.5874 28.9464 23.7865C28.9019 23.9855 28.8139 24.1963 28.681 24.4171C27.707 26.1427 26.5004 28.0003 25.0629 29.9912C23.624 31.9817 22.0422 33.9839 20.3158 35.9965C18.5898 38.0102 16.8078 39.9679 14.9716 41.8693C13.1344 43.7723 11.3303 45.4758 9.56084 46.9791C9.38341 46.8912 9.22881 46.8246 9.09629 46.7801C8.9634 46.7366 8.80769 46.67 8.63137 46.581C9.0731 44.7675 9.52771 42.9757 9.99226 41.2056C10.4572 39.4366 10.932 37.778 11.4198 36.2287C11.9064 34.6808 12.3931 33.2757 12.8804 32.0148C13.3671 30.7539 13.8533 29.7252 14.3411 28.929C14.4294 28.7082 14.5402 28.5206 14.6731 28.365C14.806 28.2104 14.9606 28.0228 15.138 27.8009C15.226 27.713 15.2705 27.6019 15.2705 27.469C15.2705 27.2038 15.0269 26.9164 14.5402 26.6066C14.0525 26.2979 13.4996 26.0095 12.8804 25.7442C12.2598 25.4789 11.6189 25.2464 10.9552 25.0474C10.2912 24.8483 9.80379 24.7486 9.49458 24.7486C9.00684 24.7486 8.4429 25.4786 7.80166 26.9385C7.15968 28.3984 6.4842 30.2896 5.7767 32.6123C5.06809 34.935 4.37127 37.5561 3.68549 40.476C2.99897 43.3959 2.37944 46.3382 1.82655 49.3015C1.27255 52.2658 0.830817 55.0974 0.498785 57.7954C0.166016 60.4956 0 62.7731 0 64.6319C0 64.9862 0.154605 65.3401 0.464919 65.6933C0.77376 66.048 1.15033 66.3571 1.59353 66.622C2.03526 66.8876 2.51159 67.1095 3.02105 67.2857C3.52941 67.4631 3.98402 67.5514 4.38194 67.5514C4.91312 67.5514 5.17889 67.2857 5.17889 66.7548C5.17889 65.4277 5.38835 63.4151 5.80946 60.716C6.22984 58.0184 6.77243 55.0757 7.43613 51.8906C7.78988 52.0679 8.077 52.179 8.29897 52.2224C8.51983 52.5771 8.75247 52.9193 8.99616 53.2508C9.23911 53.5827 9.47139 53.9259 9.69336 54.2795C11.4194 56.6685 13.2224 59.0467 15.1042 61.4129C16.9848 63.7801 18.7444 65.8817 20.3824 67.7166C22.0194 69.5522 23.4583 71.0121 24.6981 72.0967C25.9364 73.1799 26.7562 73.6111 27.1545 73.3907C27.4199 73.2579 27.7957 72.9698 28.2831 72.5283C28.7698 72.0853 29.2343 71.6096 29.6771 71.1015C30.1189 70.5923 30.4844 70.1063 30.7726 69.6416C31.0601 69.1769 31.1595 68.834 31.0715 68.6128C30.9824 68.4804 30.8941 68.4138 30.8061 68.4138C30.5842 68.3248 30.385 68.225 30.2083 68.1154C30.0313 68.0043 29.8317 67.8832 29.6109 67.7504C29.4559 67.6371 29.2987 67.5124 29.1426 67.3939C29.4555 67.4947 29.7868 67.5517 30.1417 67.5517C31.0712 67.5517 32.0113 67.1761 32.9632 66.4237C33.9144 65.6724 34.8325 64.7099 35.7185 63.5373C36.4072 62.6248 37.0691 61.6222 37.7044 60.535C37.5752 62.0516 37.5104 63.4173 37.5104 64.6322C37.5104 64.9866 37.6651 65.3405 37.9754 65.6937C38.2842 66.0484 38.6608 66.3574 39.104 66.6224C39.5457 66.888 40.022 67.1099 40.5315 67.2861C41.0399 67.4634 41.4945 67.5517 41.8924 67.5517C42.4236 67.5517 42.6893 67.2861 42.6893 66.7552C42.6893 66.3571 42.7111 65.9483 42.7556 65.5274C42.799 65.108 42.8657 64.6981 42.9548 64.3C43.3965 61.9997 44.238 59.5221 45.4778 56.8675C45.5661 57.8414 45.787 58.9474 46.1418 60.1855C46.4956 61.4243 46.9719 62.5858 47.5693 63.669C48.1668 64.7537 48.8743 65.6716 49.6937 66.4229C50.5123 67.1757 51.4304 67.551 52.449 67.551C53.3784 67.551 54.2965 67.1754 55.2042 66.4229C56.1109 65.6716 56.9855 64.7091 57.8266 63.5366C58.258 62.935 58.6714 62.2937 59.0683 61.616C59.1165 61.769 59.1621 61.9217 59.2199 62.0766C59.5737 63.0284 60.0717 63.9129 60.7137 64.7312C61.3549 65.5502 62.1515 66.2243 63.1038 66.7548C64.055 67.2857 65.1288 67.5514 66.3236 67.5514C68.3155 67.5514 70.152 66.899 71.8342 65.594C73.5157 64.2897 74.9764 62.6189 76.2158 60.5836C78.519 59.1424 80.5164 57.4264 82.2126 55.4407C82.2056 55.4742 82.1979 55.5069 82.1909 55.5404C81.4823 58.9029 80.8631 62.2657 80.3319 65.6271C79.8008 68.9885 79.3808 72.2182 79.0708 75.315C78.805 77.4387 78.6721 79.3184 78.6721 80.9557C78.6721 81.3093 78.8279 81.6408 79.1371 81.9509C79.4474 82.2596 79.824 82.5253 80.2657 82.7475C80.7074 82.9682 81.1837 83.1342 81.6932 83.2449C82.2012 83.3549 82.6558 83.4112 83.0545 83.4112C83.6287 83.4112 84.1717 83.3667 84.6811 83.2784C85.1891 83.1894 85.71 82.8575 86.2415 82.2832C86.8158 81.7077 87.3035 80.9446 87.7018 79.9939C88.1005 79.0421 88.4093 78.1241 88.6316 77.24C89.0299 75.7355 89.3506 74.0986 89.5942 72.3296C89.8372 70.5595 89.9701 68.7563 89.9925 66.9215C90.0146 65.0859 89.948 63.2499 89.7934 61.4136C89.6381 59.578 89.4054 57.8197 89.0966 56.1379C90.0695 56.0051 91.1101 55.6964 92.2166 55.2085C93.3224 54.7221 94.3745 54.1139 95.3702 53.384C95.6629 53.1695 95.9456 52.9461 96.2227 52.7184C96.0092 53.6544 95.8013 54.5941 95.6021 55.5408C94.8935 58.9032 94.2744 62.2661 93.7432 65.6275C93.212 68.9889 92.792 72.2185 92.482 75.3154C92.2163 77.439 92.0834 79.3188 92.0834 80.9561C92.0834 81.3096 92.2391 81.6411 92.5483 81.9513C92.8586 82.26 93.2352 82.5256 93.6769 82.7479C94.1186 82.9686 94.595 83.1345 95.1044 83.2453C95.6124 83.3553 96.067 83.4116 96.4657 83.4116C97.0399 83.4116 97.5829 83.3671 98.0924 83.2788C98.6003 83.1897 99.1212 82.8579 99.6528 82.2835C100.227 81.7081 100.715 80.945 101.113 79.9943C101.512 79.0425 101.821 78.1245 102.043 77.2404C102.441 75.7359 102.762 74.099 103.005 72.33C103.248 70.5599 103.381 68.7567 103.404 66.9218C103.426 65.0863 103.359 63.2503 103.205 61.414C103.049 59.5784 102.817 57.8201 102.508 56.1383C103.481 56.0055 104.521 55.6968 105.628 55.2089C106.734 54.7225 107.786 54.1143 108.781 53.3843C108.917 53.285 109.047 53.1805 109.179 53.0782C108.563 55.6044 108.063 58.085 107.687 60.5177C107.642 60.9603 107.598 61.3801 107.554 61.7786C107.509 62.1767 107.443 62.5976 107.355 63.0391C107.31 63.5266 107.41 64.0344 107.653 64.5653C107.896 65.0962 108.239 65.5837 108.682 66.0252C109.124 66.4678 109.645 66.8328 110.243 67.1202C110.84 67.4082 111.448 67.5514 112.068 67.5514C113.572 67.5514 114.934 66.8214 116.151 65.3615C117.368 63.9015 118.463 62.1546 119.438 60.1192C119.216 61.1373 118.995 62.1211 118.774 63.0722C118.552 64.0241 118.331 64.9862 118.11 65.9586C117.401 66.4461 116.638 66.9325 115.819 67.4185C115 67.9049 114.193 68.4138 113.396 68.9447C112.599 69.4756 111.825 70.0283 111.072 70.6037C110.319 71.178 109.634 71.8201 109.014 72.5283C108.526 73.1026 108.095 73.7561 107.719 74.4857C107.343 75.2157 107.089 75.9787 106.956 76.7749C106.823 77.5715 106.813 78.3559 106.923 79.1308C107.033 79.9041 107.331 80.6238 107.819 81.2872C108.305 81.9943 108.936 82.5253 109.711 82.8799C110.485 83.2335 111.271 83.4109 112.068 83.4109C114.679 83.4109 116.637 82.7357 117.943 81.3869C119.248 80.0373 120.277 78.2566 121.031 76.0453C121.782 73.9654 122.458 71.8646 123.055 69.7413C123.653 67.6176 124.194 65.4726 124.682 63.3048C126.895 61.4467 128.997 59.3013 130.989 56.8679C132.981 54.4355 134.618 51.5374 135.902 48.1752C136.033 47.9089 136.033 47.6771 135.9 47.4776ZM73.346 51.2393C73.124 52.523 72.8251 53.8056 72.4497 55.0882C72.0731 56.3719 71.6196 57.61 71.0884 58.8043C70.5572 59.9986 70.0032 61.017 69.4286 61.8566C68.6755 62.0785 68.0346 62.2551 67.5034 62.3875C66.9722 62.5203 66.3299 62.6315 65.5779 62.7194C65.4008 62.7194 65.1796 62.7643 64.9138 62.8522C64.5155 61.9681 64.3164 60.762 64.3164 59.2359C64.3164 57.7097 64.4927 56.1173 64.8475 54.4583C65.2013 52.7993 65.7325 51.1849 66.4411 49.6138C67.1486 48.0443 67.9683 46.7274 68.8978 45.6656C69.4724 45.0019 70.0481 44.5375 70.6239 44.2723C71.1985 44.007 71.7193 43.9404 72.1843 44.0732C72.6492 44.206 73.0144 44.571 73.2798 45.1682C73.5455 45.7657 73.6784 46.6178 73.6784 47.7231C73.6777 48.7842 73.5665 49.9567 73.346 51.2393ZM88.0508 68.9241C87.8954 71.9985 87.3757 74.9294 86.4911 77.7168C86.4462 77.8496 86.3685 78.0704 86.2588 78.3806C86.1477 78.6893 86.0369 78.9994 85.9268 79.3099C85.8156 79.6186 85.6945 79.8957 85.5616 80.1393C85.4287 80.3821 85.2959 80.5042 85.1633 80.5042C84.853 80.5042 84.8085 79.4641 85.0305 77.3853C85.3393 74.4658 85.7273 71.5559 86.1922 68.6588C86.6571 65.7621 87.1769 62.8754 87.7526 59.9989C88.106 62.875 88.2054 65.8493 88.0508 68.9241ZM101.461 68.9241C101.306 71.9985 100.786 74.9294 99.9016 77.7168C99.8567 77.8496 99.779 78.0704 99.6693 78.3806C99.5582 78.6893 99.4474 78.9994 99.3373 79.3099C99.2261 79.6186 99.105 79.8957 98.9721 80.1393C98.8392 80.3821 98.7064 80.5042 98.5738 80.5042C98.2635 80.5042 98.219 79.4641 98.4409 77.3853C98.7498 74.4658 99.1378 71.5559 99.6027 68.6588C100.068 65.7621 100.587 62.8754 101.163 59.9989C101.516 62.875 101.616 65.8493 101.461 68.9241ZM115.935 73.0051C115.514 74.376 115.105 75.6366 114.706 76.7874C114.264 77.9825 113.744 78.8552 113.146 79.4089C112.549 79.9612 111.962 80.2382 111.387 80.2382C110.766 80.2382 110.28 79.9726 109.926 79.4417C109.571 78.9107 109.372 78.357 109.328 77.7827C109.239 76.7212 109.472 75.7473 110.026 74.8632C110.578 73.9776 111.264 73.1597 112.084 72.4076C112.902 71.6549 113.777 70.9808 114.706 70.384C115.636 69.7865 116.476 69.2225 117.229 68.6916C116.787 70.1953 116.355 71.6332 115.935 73.0051Z" fill="white"/>
<path d="M75.2683 91.5244C73.0475 93.2456 70.7545 94.8346 68.4388 96.4101C66.1473 97.9775 63.7598 99.5739 61.0395 100.366C58.4395 101.157 55.6044 101.187 53.0125 100.414C53.0648 99.0301 53.1082 97.7659 53.2168 96.5304C53.4524 93.9674 53.9976 91.5814 54.3911 89.0457C54.5777 87.7789 54.859 86.5014 55.2609 85.2564C56.9402 80.1764 59.4695 75.4092 62.4758 70.9665L62.1997 70.7214C59.2045 73.5839 56.6314 76.8949 54.4713 80.4454C53.7602 81.6485 53.1038 82.8925 52.5126 84.178C51.3174 86.7682 50.0776 89.4909 50.0699 92.4295C50.0224 95.1223 50.6412 97.9543 52.2366 100.155C51.4709 99.8726 50.7306 99.5209 50.0316 99.089C41.4348 94.2198 39.4596 81.8612 37.9721 72.8514L37.6952 72.8506C37.2252 75.7241 37.1412 78.6561 37.368 81.5889C37.7552 86.3587 39.076 91.3522 42.0098 95.2621C46.8188 101.911 53.6475 103.032 61.2625 101.23C64.1032 100.581 66.9785 99.7476 69.6171 98.3932C74.768 95.6106 79.0682 91.3007 82.1938 86.3863L81.9877 86.2016C79.7062 87.9562 77.5321 89.7837 75.2683 91.5244Z" fill="#CC9F53"/>
<path d="M61.429 15.6704C63.6748 13.5033 66.0495 11.515 68.4161 9.51091C70.7804 7.4954 73.2191 5.46187 76.0256 4.07442C79.9223 2.11742 84.5395 1.3146 88.8298 2.08798C88.7484 2.11926 88.6704 2.14869 88.6704 2.14869C88.8592 5.51154 88.6862 8.58116 87.9051 11.7619C87.1424 14.8289 86.415 17.9677 85.0431 20.8706C82.1549 26.8701 78.161 32.297 73.6193 37.1794L73.8604 37.4586C76.5958 35.3979 79.0669 33.0362 81.4132 30.5409C83.7525 27.9937 85.8761 25.2497 87.6485 22.257C90.6059 17.5163 92.5502 12.5724 91.253 6.90157C90.8408 5.17673 90.1377 3.53394 89.1055 2.14317C90.8437 2.48534 92.5263 3.08139 94.0779 3.9795C99.0293 7.10614 101.166 12.9521 102.854 18.3956C103.751 21.3784 104.449 24.4579 105.241 27.5574L105.517 27.5294C105.755 19.7893 104.681 10.189 99.037 4.37539C90.9744 -3.70686 79.9684 1.11077 71.252 5.26282C63.9484 8.73973 58.1389 15.0423 54.5178 22.2018L54.7446 22.3608C57.0059 20.087 59.1416 17.7985 61.429 15.6704Z" fill="#CC9F53"/>
</g>
<defs>
<clipPath id="clip0_12_72">
<rect width="136" height="102" fill="white"/>
</clipPath>
</defs>
</svg>
