<svg width="180" height="180" viewBox="0 0 180 180" fill="none" xmlns="http://www.w3.org/2000/svg">
<g clip-path="url(#clip0_5_193)">
<path d="M89.935 171.057C134.737 171.057 171.057 134.737 171.057 89.935C171.057 45.1325 134.737 8.81299 89.935 8.81299C45.1325 8.81299 8.81299 45.1325 8.81299 89.935C8.81299 134.737 45.1325 171.057 89.935 171.057Z" fill="white"/>
<path fill-rule="evenodd" clip-rule="evenodd" d="M92.4249 4.45411C90.5669 4.12711 90.7799 4.56511 89.6059 4.20811C87.9129 4.42411 85.9549 4.51611 83.9839 4.59011C82.9999 4.63311 82.0109 4.64911 81.0589 4.71211C80.1119 4.84411 79.1979 4.98011 78.3519 5.13111C76.6729 5.43111 75.1559 5.89511 73.4529 6.23511C71.7639 6.60111 70.0749 7.18511 68.3339 7.63411C66.6099 8.14911 64.8079 8.48511 63.1189 9.19311C61.4049 9.82011 59.6899 10.4481 57.9939 11.0691C57.1349 11.3521 56.3149 11.7151 55.5219 12.1201C54.7219 12.5071 53.9289 12.8911 53.1459 13.2691C49.4579 14.8861 46.0459 17.2271 43.0129 18.7881C43.9349 17.6071 45.9779 16.1961 48.2779 14.8051C50.6259 13.4981 53.3559 12.4591 55.4229 11.4751C56.1319 11.0571 56.7339 10.7021 57.3349 10.3471C60.1839 9.40211 62.7539 8.29311 65.2859 7.50211C67.8339 6.76811 70.2669 6.06611 72.6289 5.38511C75.0439 4.93511 77.4089 4.52111 79.7899 4.18911C80.9759 3.97511 82.1849 3.98111 83.4009 3.97511C84.6169 3.97011 85.8439 3.99311 87.0869 4.05011C87.9279 3.91411 88.7169 3.86811 89.5299 3.82211C90.3429 3.77711 91.1799 3.86711 92.1279 3.80811C92.4059 3.85311 92.6879 3.89711 92.7529 3.97911C93.1989 4.10111 92.6739 4.31611 92.4249 4.45411Z" fill="white"/>
<path fill-rule="evenodd" clip-rule="evenodd" d="M52.432 15.3199C51.558 15.8469 49.648 16.8209 49.594 16.5059C48.699 17.2769 47.467 17.7229 46.183 18.5759C45.22 19.0589 44.222 19.5809 43.195 20.1359C42.201 20.7379 41.228 21.4469 40.207 22.1449C38.177 23.5589 36.017 25.0309 34.07 26.8769C32.06 28.6469 29.951 30.4229 28.125 32.5089L25.261 35.5219C24.28 36.5049 23.502 37.6519 22.608 38.6929C22.102 38.8259 22.777 37.9499 23.023 37.4399C24.356 35.6939 25.654 34.3029 26.842 32.8339C27.447 32.1089 28.052 31.3889 28.698 30.6679C29.023 30.3099 29.349 29.9419 29.708 29.5909C30.089 29.2619 30.485 28.9329 30.902 28.6039C34.548 24.5129 40.027 21.2309 44.416 18.6679C45.343 18.2899 46.608 17.6609 47.993 16.9059C48.693 16.5429 49.39 16.0869 50.152 15.7259C50.911 15.3579 51.676 14.9869 52.427 14.6229C52.756 14.5689 52.646 15.0369 52.432 15.3199Z" fill="white"/>
<path fill-rule="evenodd" clip-rule="evenodd" d="M28.818 33.4719L28.972 33.6149C28.157 34.6359 27.277 35.5659 26.407 36.4869C25.509 37.3839 24.826 38.4419 24.125 39.4659C24.155 38.9339 25.033 37.6829 25.334 36.9189C26.674 35.5399 27.622 34.3869 28.818 33.4719Z" fill="white"/>
<path fill-rule="evenodd" clip-rule="evenodd" d="M21.883 39.313C22.291 39.334 20.415 41.647 19.952 42.135C20.41 41.154 21.251 40.383 21.883 39.313Z" fill="white"/>
<path fill-rule="evenodd" clip-rule="evenodd" d="M17.588 106.26C17.326 105.115 17.259 103.892 17.121 102.704C16.976 101.517 16.772 100.361 16.454 99.292C16.392 98.664 16.299 98.024 16.261 97.364C16.262 96.701 16.264 96.025 16.265 95.341C16.253 93.973 16.241 92.573 16.229 91.179C16.127 89.782 16.351 88.387 16.38 87.021C16.441 85.656 16.462 84.32 16.425 83.039C16.808 81.285 16.988 79.251 17.358 77.439C19.426 68.939 21.82 60.207 25.526 52.241L26.521 50.603C27.623 48.169 28.957 45.913 30.608 43.397C31.411 42.064 32.492 40.859 33.6 39.625C34.728 38.412 35.793 37.075 37.07 35.942C38.356 34.827 39.651 33.705 40.929 32.597C42.154 31.433 43.626 30.614 44.906 29.656C44.994 29.728 45.023 29.872 45.473 29.494C47.99 27.649 50.83 26.469 53.526 25.052C54.192 24.68 54.895 24.375 55.622 24.109L57.773 23.228C58.49 22.916 59.208 22.603 59.931 22.288C60.646 21.947 61.376 21.622 62.151 21.377C63.635 20.842 64.958 20.11 66.478 19.795C67.923 18.915 69.945 18.434 71.824 17.76C72.738 17.572 73.781 17.325 74.877 17.037C75.997 16.859 77.175 16.667 78.33 16.441C79.486 16.218 80.62 15.972 81.657 15.716C82.691 15.437 83.654 15.376 84.422 15.17C86.61 15.296 88.526 14.762 90.746 14.789C92.284 14.852 93.882 14.918 95.526 14.986C96.347 15.039 97.188 15.011 98.023 15.129C98.858 15.253 99.702 15.379 100.554 15.506C102.252 15.789 104.009 15.945 105.735 16.334C107.452 16.771 109.185 17.212 110.92 17.653C117.746 19.751 124.469 22.52 129.744 25.994C130.837 26.41 131.57 26.865 132.708 27.529C134.032 28.749 136.093 30.26 138.172 31.771C140.112 33.448 142.124 35.065 143.577 36.166C144.158 37.038 145.058 38.088 146.073 39.207C147.05 40.357 148.289 41.46 149.075 42.801C150.393 44.834 151.391 46.766 152.696 48.046C153.359 49.224 154.062 50.397 154.787 51.581C155.496 52.773 156.321 53.926 156.885 55.243C158.087 57.829 159.525 60.416 160.197 63.38C160.498 64.538 160.809 65.737 161.123 66.945C161.462 68.129 161.531 69.403 161.797 70.632C162.243 72.273 162.745 73.857 163.042 75.492C163.289 77.138 163.548 78.79 163.894 80.504C163.982 80.536 164.083 80.432 164.144 80.748C164.182 81.258 164.313 81.831 164.404 82.457C164.476 83.079 164.555 83.761 164.636 84.46C164.803 85.854 164.963 87.336 164.911 88.678C165.133 89.75 165.197 90.793 165.276 91.87C165.351 92.97 165.428 94.09 165.508 95.258C165.763 97.674 165.34 100.402 164.753 103.933C164.998 105.41 164.403 107.587 163.913 109.925C163.617 111.081 163.431 112.308 163.033 113.414C162.655 114.526 162.306 115.593 162.039 116.541C161.062 119.4 158.674 123.747 157.28 125.459C156.363 127.146 155.229 128.539 154.046 130.67C153.609 131.248 153.298 131.419 152.805 132.183C152.683 132.571 152.381 133.054 151.983 133.644C149.23 136.716 145.122 141.783 141.653 145.255C141.057 145.434 140.312 146.558 139.663 146.781C133.782 152.432 126.349 158.004 118.199 160.396C116.587 160.072 114.289 160.438 113.564 159.711C112.873 159.788 111.788 160.222 111.404 160.025C111.465 159.783 110.954 159.857 110.764 159.754C108.335 159.966 103.862 160.754 101.336 161.475C100.169 162.339 98.641 163.274 100.853 163.67C100.724 165.148 104.494 166.328 97.68 167.667C96.667 168.36 95.477 168.829 96.115 169.702C97.005 169.849 97.6971 170.12 98.495 170.271C99.291 170.406 100.204 170.516 101.553 170.49C101.019 170.706 101.543 170.669 101.602 170.835C102.862 170.699 104.731 170.317 104.915 170.612C101.755 171.008 101.42 171.619 99.025 172.076C96.4081 172.999 97.525 173.94 95.553 174.627C94.738 174.58 94.608 174.522 93.686 174.652C93.176 175.146 94.367 175.228 92.783 175.607C93.356 175.863 94.168 175.781 95.312 175.759C95.803 176.108 96.869 176.3 98.17 176.426C99.47 176.552 100.982 176.384 102.395 176.369C104.442 176.037 106.341 175.879 108.109 175.583C109.855 175.244 111.522 174.92 113.152 174.604C116.444 174.112 119.42 173.001 122.757 171.743C122.931 171.909 123.634 171.762 124.441 171.473C125.222 171.123 126.106 170.637 126.695 170.255C127.304 170.155 127.131 170.663 128.134 170.261C128.863 169.696 127.744 170.125 127.63 169.96C128.644 169.304 131.08 168.005 131.979 167.779C133.677 166.358 137.308 164.36 139.409 162.583C140.404 162.201 141.751 161.422 143.578 160.084C143.46 159.863 143.76 159.45 144.008 159.062C144.592 158.561 145.151 158.102 145.692 157.673C146.205 157.206 146.688 156.768 147.158 156.341C148.108 155.501 149.015 154.75 149.918 153.998C150.801 153.227 151.764 152.538 152.605 151.614C153.456 150.7 154.332 149.696 155.256 148.517C155.88 147.982 156.617 147.252 157.415 146.409C158.223 145.574 158.933 144.495 159.737 143.456C164.646 138.935 169.589 130.102 172.054 122.307C172.781 121.375 173.353 119.999 173.879 118.536C174.134 117.803 174.395 117.05 174.65 116.315C174.839 115.559 175.033 114.821 175.252 114.143C175.936 111.986 176.748 109.852 177.397 107.656C177.888 105.43 178.294 103.155 178.44 100.824C178.518 100.291 178.275 100.621 178.329 100.154C178.667 98.477 178.587 96.492 178.692 94.472C178.72 93.46 178.749 92.434 178.777 91.422C178.793 90.916 178.808 90.413 178.823 89.916C178.797 89.419 178.771 88.929 178.746 88.449C178.594 85.713 178.795 83.04 178.418 80.314C177.8 77.169 177.146 74.834 176.257 73.093C175.843 70.66 174.234 68.199 174.017 65.694C173.817 65.252 173.644 65.41 173.426 64.533C173.253 63.928 173.351 63.891 173.282 63.571C173.043 63.677 173.215 63.967 172.883 63.697C173.528 65.365 173.666 66.212 174.296 67.611C174.383 68.038 174.352 68.229 174.547 68.87C175.992 72.1 176.931 76.093 177.909 80.693C178.191 82.926 178.261 85.23 178.375 87.352C178.409 88.414 178.524 89.432 178.52 90.381C178.51 91.33 178.529 92.209 178.6 92.995C178.537 93.738 178.3 93.417 178.203 93.955C178.356 95.651 177.97 97.12 177.917 99.128C177.77 100.531 177.927 101.758 177.705 103.359C177.479 104.981 177.207 106.288 176.917 107.652C176.532 108.997 176.072 110.388 175.607 112.218C174.788 113.608 174.119 117.285 173.504 117.33C173.504 116.952 173.794 116.447 174.023 115.891C174.237 115.331 174.453 114.74 174.433 114.247C174.204 114.848 173.971 115.544 173.759 115.725C174.125 112.396 173.574 110.999 174.248 106.981C174.825 103.628 175.043 101.163 175.091 99.152C175.429 96.451 175.583 93.444 175.782 90.307C175.71 87.17 175.56 83.884 175.261 80.626C174.99 79.011 174.719 77.395 174.451 75.794C174.16 74.201 173.951 72.611 173.455 71.118C173.016 69.62 172.587 68.153 172.17 66.731C171.957 66.028 171.747 65.335 171.541 64.657C171.292 63.994 171.009 63.358 170.751 62.733C170.389 61.451 170.02 60.278 169.584 59.055C169.146 57.832 168.685 56.539 167.863 55.135C167.67 54.197 167.208 53.009 166.609 51.708C166.002 50.411 165.322 48.966 164.396 47.669C163.528 46.338 162.662 45.012 161.902 43.845C161.529 43.252 161.189 42.691 160.899 42.173C160.576 41.678 160.287 41.237 160.083 40.841C159.311 40.398 158.226 39.097 157.239 37.71C156.746 37.016 156.277 36.3 155.886 35.659C155.453 35.052 155.088 34.529 154.881 34.159C154.091 34.007 152.549 32.03 151.613 30.771C151.683 30.695 152.664 31.597 151.764 30.626C151.362 30.155 151.277 30.232 151.029 30.028C150.771 29.486 150.314 28.891 150.268 28.567C149.438 27.743 149.187 27.742 148.357 26.92C148.686 27.031 148.964 27.068 149.529 27.515C150.849 28.594 150.886 28.899 151.429 29.637C151.527 29.485 151.176 29.037 151.841 29.674C151.814 30.289 153.289 31.103 153.553 31.969C153.151 31.542 152.81 31.221 152.601 31.131C153.478 31.996 154.526 33.029 155.304 33.796C155.076 33.548 154.789 33.179 155.145 33.516C148.39 24.588 140.247 18.528 130.471 13.453C130.012 13.04 128.98 12.49 128.022 11.958C126.539 11.343 125.283 10.79 124.265 10.428C123.257 10.041 122.414 10.021 121.883 10.186C123.704 10.765 125.199 11.598 127.026 12.391C128.827 13.241 130.956 14.095 133.516 15.778C134.506 16.595 135.211 17.314 135.227 17.799C131.036 15.374 126.554 12.688 122.209 11.05C121.573 10.85 121.283 10.849 120.691 10.641C117.042 9.37498 115.309 8.44498 112.76 7.79098C107.905 6.19998 102.459 5.47798 97.417 4.84798C96.302 4.76298 95.212 4.37998 93.983 4.60198C95.36 4.76498 96.805 4.90598 98.158 5.00398C99.507 5.13798 100.751 5.38298 101.755 5.45198C103.156 5.78598 105.068 6.16198 107.052 6.52398C109.008 7.05798 111.023 7.60798 112.685 8.06098C113.51 8.33698 114.29 8.59798 115.046 8.85098C115.804 9.15898 116.536 9.45498 117.258 9.74798C118.715 10.327 120.152 10.862 121.636 11.406C123.148 11.883 124.568 12.696 126.155 13.427C127.706 14.23 129.449 14.941 131.179 16.076C131.357 16.617 132.239 17.068 133.386 17.823C133.088 18.131 133.877 18.801 135.155 19.635C135.941 19.991 134.854 19.117 135.609 19.502C136.294 20.066 136.927 20.605 136.854 20.952C136.195 20.476 135.359 20.051 135.08 19.752C135.136 20.185 136.762 21.103 136.5 21.472C133.898 19.937 131.363 18.637 128.859 17.368C126.234 16.323 123.729 15.096 121.044 13.894C120.383 13.448 120.117 13.051 119.287 12.581C118.589 12.636 120.579 13.543 120.707 13.92C118.974 13.519 116.427 12.583 114.911 12.319C114.607 12.116 114.776 11.893 113.857 11.681C111.161 10.899 108.864 10.364 106.72 9.90798C104.543 9.60298 102.498 9.46798 100.332 9.19198C99.507 9.10898 98.701 8.94898 97.89 8.91098C97.077 8.87498 96.272 8.83898 95.469 8.80298C93.863 8.71198 92.265 8.62298 90.643 8.53098C89.021 8.45598 87.375 8.63198 85.675 8.69598C84.826 8.74998 83.9641 8.80498 83.082 8.86098C82.2 8.90598 81.305 8.99198 80.402 9.19998C79.926 9.21998 80.43 8.84998 79.485 9.05698C78.385 9.21498 77.176 9.38898 75.937 9.56698C74.7 9.76298 73.42 9.89098 72.243 10.214C69.867 10.753 67.704 11.119 66.377 10.936C64.555 11.466 64.062 11.518 62.85 11.823C62.337 12.07 61.846 12.314 61.191 12.579C60.486 12.578 58.6 13.374 57.178 13.964C55.607 14.654 54.231 14.944 52.586 15.632C49.687 16.764 48.773 17.767 47.622 18.6C46.237 19.691 43.999 21.022 43.374 22.074C43.84 21.843 44.37 21.642 44.82 21.529C46.347 20.293 48.014 18.66 50.355 17.269C51.892 16.509 53.061 16.45 54.567 15.531L54.657 15.72C55.685 15.187 56.659 14.716 57.59 14.294C58.533 13.899 59.476 13.657 60.361 13.385C62.144 12.869 63.794 12.472 65.423 12.085C67.087 11.807 68.757 11.62 70.52 11.296C71.404 11.139 72.315 10.959 73.27 10.743C74.231 10.552 75.263 10.453 76.347 10.244C78.67 10.254 80.795 10.168 82.611 10.505C79.563 10.719 78.628 11.403 75.715 11.755C73.907 12.195 72.015 12.954 69.984 13.523C68.962 13.807 67.926 14.095 66.874 14.388C65.822 14.687 64.798 15.13 63.739 15.488C59.472 16.845 55.288 18.814 51.666 20.883C46.136 23.741 41.921 27.142 37.494 31.297C37.04 31.442 36.293 32.019 35.46 32.719C34.616 33.407 33.706 34.237 33.012 34.98C32.645 35.449 33.211 35.286 32.435 36.032C29.485 39.216 28.333 38.679 26.281 41.126C25.905 41.559 25.392 42.444 24.927 43.054C24.594 43.492 24.077 44.114 23.579 44.718C23.079 45.321 22.707 45.98 22.472 46.357C20.896 49.171 19.628 51.881 18.231 55.072C17.685 56.192 17.12 57.349 16.543 58.531C16.015 59.734 15.593 61.013 15.099 62.278C14.618 63.549 14.132 64.835 13.645 66.122C13.286 67.45 12.927 68.78 12.571 70.099C12.183 71.152 11.816 72.367 11.455 73.678C11.207 75.013 11.013 76.454 10.793 77.928C10.609 79.407 10.289 80.91 10.181 82.42C10.089 83.932 9.96904 85.427 9.79504 86.856C9.88404 87.978 9.76204 89.265 9.85104 90.633C9.92204 92.003 9.99704 93.45 10.072 94.891C10.188 96.326 10.128 97.772 10.451 99.076C10.714 100.386 11.011 101.588 11.367 102.582C11.503 103.337 11.134 102.853 11.336 103.772C11.929 106.227 12.698 108.982 13.604 110.423C13.793 111.068 13.869 111.502 13.897 111.846C16.823 119.052 20.793 125.975 26.123 134.219C27.495 137.101 28.452 140.062 30.408 142.959C31.047 144.299 31.631 145.608 32.445 147.08C33.336 148.475 34.532 149.961 36.25 151.789C36.783 152.2 37.304 152.585 37.813 152.946C38.343 153.281 38.886 153.561 39.399 153.839C40.433 154.386 41.406 154.853 42.317 155.259C43.228 155.665 44.077 156.011 44.862 156.316C45.664 156.597 46.447 156.772 47.137 156.972C48.858 157.886 49.748 157.883 50.302 157.913C52.26 158.997 54.186 159.676 56.07 160.443C57.013 160.834 57.953 161.224 58.916 161.624C59.868 162.061 60.935 162.297 62.002 162.678C70.521 165.596 75.668 168.517 84.697 169.052C85.081 169.141 85.256 169.269 85.85 169.32C86.409 168.912 89.4221 169.833 89.928 169.178C88.412 168.643 85.152 168.175 82.452 168.101C81.5841 167.68 79.99 167.581 78.503 167.27C76.648 166.813 75.074 166.198 73.576 165.667C73.144 165.512 72.627 165.508 72.461 165.451C71.255 165.04 70.328 164.498 68.722 164.057C66.91 163.625 65.79 163.142 64.676 162.791C63.566 162.443 62.486 162.105 60.895 161.606C60.074 161.381 59.291 161.061 58.526 160.713C57.754 160.385 56.988 160.06 56.234 159.74C54.747 159.07 53.219 158.608 51.957 157.937C49.383 156.688 47.189 155.845 45.796 155.832C43.699 154.306 42.491 154.618 40.544 153.59C38.094 151.878 38.465 152.383 36.324 150.346C35.494 149.062 34.786 147.85 34.116 146.668C33.447 145.485 32.97 144.178 32.371 142.938C31.792 141.678 31.174 140.399 30.444 139.054C29.82 137.622 29.112 136.099 28.22 134.456C27.675 133.767 27.13 133.095 26.701 132.456C26.323 131.784 26.028 131.168 25.885 130.657C28.381 133.736 31.864 138.363 35.905 142.68C36.862 143.808 38.048 144.717 39.098 145.729C40.194 146.693 41.211 147.719 42.324 148.548C44.608 150.129 46.684 151.663 48.642 152.575C47.995 151.86 46.979 151.21 46.039 150.544C44.779 149.591 43.487 148.613 42.162 147.611C40.939 146.487 39.686 145.337 38.405 144.16C37.064 143.043 35.92 141.676 34.691 140.338C33.488 138.978 32.13 137.697 31.047 136.138C30.364 135.244 29.657 134.388 28.934 133.54C28.209 132.694 27.444 131.871 26.832 130.923C26.181 129.983 25.527 129.038 24.865 128.081C24.234 127.087 23.492 126.113 23.025 124.939C22.418 123.6 21.924 122.39 21.395 121.143C21.123 120.519 20.847 119.887 20.558 119.222C20.328 118.528 20.074 117.802 19.778 117.02C19.841 116.87 19.538 116.187 19.85 116.404C19.486 115.503 19.215 114.607 18.987 113.728C18.754 112.85 18.553 111.992 18.481 111.108C18.264 109.361 17.998 107.7 17.238 106.059C17.425 106.175 17.586 106.82 17.588 106.26ZM101.87 168.534C102.234 168.496 102.181 168.627 101.891 168.672C101.95 168.746 102.425 168.65 102.766 168.609C102.713 168.763 101.701 168.838 101.641 168.993C102.124 169.042 102.759 169.03 103.428 169.004C101.837 169.532 100.664 168.956 101.87 168.534ZM120.649 165.674C121.169 166.194 117.272 167.731 116.371 167.984C115.459 168.241 113.873 168.476 114.76 167.903C115.735 167.271 119.092 166.553 120.649 165.674ZM127.825 161.338C127.663 161.236 127.742 161.08 127.928 160.901C129.517 160.41 132.558 158.286 133.871 158.155C131.374 159.542 130.647 159.848 127.825 161.338ZM136.546 157.319C136.263 157.293 136.943 156.847 136.868 156.729C137.265 156.607 138.002 156.084 138.27 156.117C137.468 156.787 137.285 156.724 136.546 157.319ZM136.297 155.412C137.697 154.488 139.185 153.507 140.702 152.506C142.19 151.43 143.577 150.12 145 148.827C145.605 148.261 146.182 147.677 146.737 147.096C147.272 146.494 147.728 145.836 148.208 145.232C149.152 144.008 150.059 142.873 151.029 141.955C150.202 143.177 149.005 144.657 147.857 146.105C147.305 146.852 146.694 147.519 146.126 148.125C145.571 148.743 145.083 149.324 144.718 149.838C143.575 150.755 142.343 151.788 141.13 152.692C139.874 153.545 138.728 154.382 137.93 155.149C137.551 155.039 136.421 155.825 136.297 155.412ZM138.994 155.576L138.868 155.408C139.829 154.61 141.561 153.174 141.884 153.414C140.789 154.428 140.29 154.729 138.994 155.576ZM142.256 153.397C142.39 153.19 142.395 153.057 142.301 152.978C143.256 152.056 143.313 152.569 142.256 153.397ZM143.374 154.268C143.813 154.19 144.504 153.282 145.009 152.878C145.988 152.096 146.751 151.808 147.565 151.121C148.315 150.49 148.761 149.972 149.254 149.408C149.713 148.808 150.189 148.132 151.055 147.223C151.581 146.635 151.198 146.68 151.419 146.304C152.345 145.192 153.259 144.094 154.166 143.005C154.981 141.838 155.79 140.681 156.596 139.527C157.392 138.365 158.246 137.246 159.01 136.06C159.729 134.842 160.45 133.621 161.178 132.388C161.877 131.14 162.743 129.968 163.351 128.631C164.007 127.321 164.672 125.991 165.352 124.631C165.698 123.956 166.048 123.274 166.403 122.583C166.747 121.889 167 121.147 167.313 120.419C167.921 118.96 168.546 117.463 169.191 115.916C169.675 116.647 168.054 120.263 169.196 120.175C168.897 121.052 168.61 121.895 168.331 122.714C168.021 123.524 167.619 124.269 167.272 125.017C166.545 126.497 165.852 127.909 165.176 129.284C164.56 130.692 163.68 131.909 162.983 133.229C162.254 134.531 161.563 135.857 160.912 137.264C159.708 139.026 158.429 140.509 157.156 142.098C156.491 142.871 155.898 143.731 155.119 144.513C154.36 145.317 153.565 146.158 152.708 147.066C151.829 148.006 150.954 148.943 150.113 149.844C149.211 150.675 148.294 151.41 147.46 152.063C145.781 153.357 144.34 154.226 143.374 154.268ZM159.55 139.747C160.149 138.914 160.271 139.144 160.719 138.647C161.887 136.94 162.472 136.173 163.314 135.071C163.776 134.384 164.314 133.49 164.885 132.512C165.167 132.022 165.461 131.511 165.759 130.994C166.009 130.451 166.263 129.902 166.512 129.361C167.517 127.198 168.503 125.179 169.255 124.265C168.257 126.007 168.33 127.43 167.231 129.276C167.116 130.035 166.963 130.791 166.748 131.587C166.47 132.348 166.126 133.147 165.688 134.022C165.25 134.898 164.718 135.85 164.065 136.918C163.413 137.987 162.668 139.19 161.581 140.412C160.693 141.479 159.575 142.423 158.695 143.457C157.135 145.446 155.506 147.443 154.371 148.147C154.284 147.503 155.486 146.041 156.715 144.386C157.866 142.666 159.146 140.828 159.55 139.747ZM151.569 141.256C151.875 140.642 152.233 140.333 152.897 139.308C153.083 139.58 152.072 140.735 151.569 141.256ZM168.702 101.696C169.444 97.831 169.142 94.009 169.518 89.768C169.474 87.795 169.538 86.273 169.572 84.61C169.589 83.779 169.598 82.913 169.583 81.939C169.508 80.972 169.331 79.906 169.13 78.661C168.886 77.203 168.486 76.298 168.08 74.087C167.421 71.661 167.056 69.246 166.16 67.654C165.931 66.261 165.46 64.961 165.037 63.705C164.599 62.455 164.117 61.278 163.525 60.257C164.28 60.728 165.942 63.809 167.127 65.829C170.73 77.987 171.775 90.71 168.91 101.726L168.702 101.696ZM155.985 46.194C155.87 46.196 155.519 45.467 155.402 45.542C153.82 43.041 152.139 41.325 150.769 39.602C150.046 38.838 149.489 37.92 148.587 36.893C147.365 35.537 145.552 33.986 145.303 33.206C143.84 32.289 141.781 29.935 140.176 28.927C140.461 28.709 142.777 30.446 141.667 28.958C140.993 28.553 140.819 28.777 140.165 28.484C138.696 27.409 137.814 26.587 137.894 26.177C139.017 26.721 141.131 27.984 142.973 29.728C144.855 31.418 146.853 33.133 147.731 34.497C149.356 35.95 150.421 37.387 151.815 39.115C152.024 39.123 151.655 38.704 151.341 38.365C153.346 40.266 154.117 43.288 155.973 45.504C156.201 45.957 155.688 45.669 155.985 46.194ZM136.986 25.934C136.524 25.537 136.317 25.249 135.94 24.889C136.16 24.801 136.619 24.999 137.318 25.484C137.887 26.092 137.445 26.025 136.986 25.934ZM122.663 21.01C121.752 20.585 120.834 20.158 119.915 19.729C118.979 19.345 118 19.064 117.049 18.731C116.094 18.411 115.143 18.092 114.201 17.777C113.264 17.449 112.335 17.134 111.379 16.957C108.662 16.406 105.628 15.316 102.423 14.989C100.837 14.76 99.253 14.532 97.712 14.309C96.156 14.271 94.651 14.258 93.254 14.292C92.727 14.233 92.0471 14.157 91.301 14.074C90.5461 13.99 89.717 13.921 88.902 13.994C87.273 14.073 85.707 14.227 84.932 14.516C83.875 14.554 82.814 14.542 81.783 14.704C80.754 14.889 79.739 15.094 78.739 15.305C76.746 15.757 74.786 16.075 72.989 16.74C70.493 17.344 67.823 17.864 65.282 19C63.99 19.504 62.681 20.005 61.348 20.48C60.016 20.958 58.759 21.643 57.415 22.152C56.215 22.638 55.196 22.774 53.952 23.271C52.915 23.785 51.759 24.615 50.59 25.223C48.915 26.11 47.115 26.714 45.623 27.812C44.918 28.285 44.078 29.035 43.381 29.489C42.918 29.79 42.52 29.845 42.085 30.107C41.39 30.488 40.725 31.049 40.107 31.614C39.475 32.163 38.86 32.682 38.295 33.031C37.455 33.839 36.643 34.62 35.831 35.402C35.045 36.213 34.328 37.091 33.548 37.948C32.779 38.814 31.991 39.7 31.164 40.631C30.333 41.556 29.652 42.677 28.833 43.792C29.411 42.696 29.993 41.593 30.552 40.534C31.102 39.585 31.467 38.755 31.409 38.209C32.353 37.144 33.269 36.11 34.179 35.083C35.098 34.063 36.179 33.211 37.236 32.295C38.012 31.657 38.543 31.221 39.186 30.692C39.503 30.415 39.848 30.114 40.269 29.746C40.715 29.406 41.241 29.006 41.9 28.504C43.077 27.59 44.111 26.61 45.215 25.762C45.933 25.167 46.735 24.683 47.555 24.223L50 22.822C50.814 22.359 51.627 21.896 52.431 21.438C53.246 20.999 54.105 20.658 54.916 20.251C56.313 19.58 57.677 18.842 58.982 18.181C60.297 17.546 61.63 17.171 62.802 16.903C63.955 16.433 65.192 15.976 66.457 15.52C67.745 15.139 69.092 14.864 70.396 14.523C71.704 14.195 72.987 13.857 74.196 13.493C75.432 13.255 76.593 12.987 77.634 12.663C78.521 12.599 79.412 12.491 80.299 12.356C81.1861 12.219 82.066 12.037 82.947 11.998C84.7 11.844 86.393 11.654 87.909 11.565C88.62 11.708 89.391 11.797 90.222 11.974C91.054 12.179 91.947 12.375 92.907 12.546C93.867 12.717 94.8941 12.862 95.997 12.965C96.548 13.016 97.118 13.057 97.709 13.085C98.293 13.156 98.893 13.23 99.525 13.307C101.551 13.522 103.205 13.438 104.773 13.32C106.346 13.171 107.768 13.295 109.382 13.485C111.002 14.224 112.38 14.065 114.145 14.713C115.463 15.227 116.835 15.875 118.361 16.535C119.138 16.859 119.938 17.193 120.777 17.543C121.6 17.951 122.476 18.353 123.424 18.736C122.607 19.147 122.382 19.645 121.38 19.766C121.641 20.149 122.798 20.714 122.663 21.01ZM27.655 45.364C27.734 45.532 27.602 45.872 27.885 45.873C26.733 46.857 26.179 48.597 25.716 49.776C24.715 51.591 23.72 53.126 23.045 54.817C22.353 56.499 21.665 58.166 20.816 60.013C20.333 60.732 20.061 61.239 19.675 61.932C18.743 64.603 17.471 67.16 16.917 69.776C16.546 71.171 16.214 72.608 15.887 74.021C15.573 75.437 15.502 76.877 15.262 78.208C15.051 79.695 14.615 81.167 14.41 82.614C14.266 84.066 14.181 85.473 14.354 86.753C13.92 89.738 13.924 93.931 14.241 96.487C14.036 97.765 14.344 99.431 14.534 101.21C14.639 102.099 14.747 103.01 14.854 103.912C14.93 104.817 15.036 105.699 15.2 106.512C15.67 108.058 16.141 109.446 16.601 110.764C16.837 111.421 17.045 112.069 17.294 112.697C17.582 113.316 17.866 113.927 18.15 114.537C18.71 115.769 19.247 117.025 19.758 118.406C19.883 118.752 20.01 119.104 20.141 119.465C20.298 119.813 20.458 120.168 20.624 120.535C20.944 121.268 21.262 122.045 21.578 122.878C20.875 121.843 20.093 120.47 19.509 119.105C18.965 117.723 18.435 116.425 17.873 115.655C17.495 114.368 16.86 113.225 16.456 112.106C16.036 110.994 15.603 109.983 15.289 109.095C14.781 107.562 14.141 105.592 13.836 103.911C13.37 101.88 12.845 100.765 12.403 97.504C12.338 96.199 12.277 94.962 12.205 93.51C12.162 92.754 12.143 91.975 12.138 91.195C12.113 90.415 12.141 89.633 12.257 88.872C12.431 87.349 12.596 85.906 12.639 84.689C12.662 84.028 12.554 83.338 12.597 82.687C12.715 81.149 13.414 79.354 13.648 77.668C13.689 77.412 13.672 76.517 13.724 76.242C13.907 75.419 14.149 74.547 14.439 73.789C14.863 72.487 15.283 71.068 15.702 69.569C15.907 68.817 16.116 68.048 16.329 67.264C16.572 66.489 16.897 65.725 17.179 64.937C17.757 63.366 18.349 61.758 18.941 60.15C19.658 58.595 20.438 57.067 21.178 55.568C21.795 54.353 22.402 53.275 23.131 52.145C23.587 51.368 23.979 50.448 24.475 49.667C25.471 48.086 26.615 46.965 27.655 45.364ZM17.453 107.409C17.635 108.135 17.704 107.914 17.726 108.469C17.52 108.746 17.138 107.264 17.453 107.409Z" fill="white"/>
<g opacity="0.58">
<path d="M95.598 104.05C95.816 104.753 95.993 105.498 96.127 106.285C98.594 107.094 101.171 107.875 103.782 108.68C103.81 108.004 103.807 107.322 103.776 106.635C103.495 106.549 103.214 106.462 102.934 106.376C100.391 105.594 97.933 104.837 95.598 104.05Z" fill="#A37D31"/>
<path d="M95.934 113.497C97.598 113.86 99.297 114.211 101.032 114.568C101.679 114.701 102.326 114.834 102.973 114.968C103.004 114.318 103.074 113.667 103.18 113.017C100.853 112.535 98.544 112.07 96.296 111.578C96.209 112.265 96.081 112.901 95.934 113.497Z" fill="#A37D31"/>
<path d="M82.446 89.4661C82.466 89.4841 82.486 89.5011 82.506 89.5191C82.357 87.4931 82.609 85.2451 83.317 82.7981C82.164 84.5541 81.344 86.2721 80.835 87.9311C81.364 88.4611 81.901 88.9761 82.446 89.4661Z" fill="#A37D31"/>
<path d="M95.986 87.1591C91.675 85.8471 87.866 83.2261 84.902 79.7961C87.672 83.9981 91.602 87.3521 96.319 89.1061C96.826 89.2951 97.338 89.4591 97.851 89.6081C97.322 88.8321 96.777 88.0991 96.218 87.4301C96.141 87.3381 96.063 87.2501 95.986 87.1591Z" fill="#A37D31"/>
<path d="M102.581 129.076C102.454 128.56 102.337 128.041 102.224 127.521C101.139 126.645 100.06 125.792 99.007 124.959C100.176 126.291 101.383 127.66 102.581 129.076Z" fill="#A37D31"/>
<path d="M84.6659 108.237C85.3759 108.546 86.1139 108.833 86.8839 109.093C86.9649 109.12 87.0469 109.146 87.1279 109.173C85.4779 105.592 83.0929 102.362 80.0959 99.738C82.1099 102.298 83.6449 105.182 84.6659 108.237Z" fill="#A37D31"/>
<path d="M72.387 66.269C71.537 67.705 70.772 69.204 70.094 70.75C70.348 71.359 70.607 71.966 70.877 72.567C71.221 70.42 71.725 68.309 72.387 66.269Z" fill="#A37D31"/>
<path d="M115.924 88.9961C116.522 90.2951 117.139 91.6151 117.787 92.9331C118.197 93.1391 118.607 93.3461 119.021 93.5421C117.942 92.0291 116.917 90.5001 115.924 88.9961Z" fill="#A37D31"/>
<path d="M101.032 114.568C99.297 114.211 97.598 113.86 95.934 113.497C94.902 117.668 92.948 119.887 97.797 123.985C100.091 130.939 103.445 137.776 108.648 142.644C105.694 138.711 103.797 133.995 102.582 129.075C101.384 127.659 100.177 126.29 99.008 124.958C106.477 130.871 115.322 137.729 117.579 147.486C116.978 140.127 111.902 132.88 107.369 127.289C107.35 127.265 107.327 127.239 107.302 127.21C104.299 123.801 102.76 119.417 102.974 114.968C102.326 114.834 101.679 114.701 101.032 114.568Z" fill="#A37D31"/>
<path d="M119.022 93.542C123.698 95.753 128.644 97.296 133.648 97.508C127.063 96.059 121.025 92.201 115.777 87.692C115.28 87.265 114.886 86.731 114.612 86.135L114.608 86.126C110.877 78.002 107.614 82.552 100.554 80.711C95.82 79.476 91.96 75.699 89.041 71.643C87.095 70.555 85.045 69.682 82.909 69.162C84.567 69.223 86.218 69.483 87.844 69.889C86.892 68.418 86.062 66.953 85.359 65.599C83.91 62.806 82.895 59.813 82.345 56.726C80.9 56.035 79.403 55.476 77.862 55.101C79.31 55.154 80.753 55.363 82.18 55.685C82.085 55.02 82.008 54.352 81.956 53.681C81.955 53.663 81.953 53.645 81.952 53.627C81.825 51.982 81.728 50.372 81.649 48.825C81.54 46.975 81.079 45.482 80.379 44.316C78.631 43.395 76.802 42.656 74.906 42.194C76.31 42.246 77.709 42.442 79.093 42.747C75.302 39.353 68.414 41.288 65.975 46.786C67.317 46.017 68.713 45.361 70.164 44.869C68.414 45.891 66.821 47.18 65.364 48.628C65.104 49.766 65.018 51.017 65.154 52.37C65.274 53.563 65.452 54.804 65.68 56.076C68.412 53.786 71.449 51.822 74.767 50.698C71.386 52.671 68.585 55.635 66.243 58.833C66.767 61.127 67.445 63.491 68.247 65.855C63.796 75.306 62.478 86.645 65.343 96.685C67.177 103.11 70.803 108.789 74.37 114.371C77.885 119.871 77.719 122.295 76.632 128.873C78.122 122.255 78.387 119.701 75.135 113.886C71.991 108.265 68.74 102.525 67.322 96.184C65.089 86.197 67.184 75.057 72.385 66.268C71.723 68.307 71.22 70.418 70.874 72.566C71.731 74.48 72.66 76.349 73.656 78.127C74.041 78.813 74.437 79.481 74.841 80.139C70.768 88.815 71.771 97.392 77.395 103.282C81.142 107.206 83.562 112.233 84.021 117.639C84.025 117.681 84.028 117.723 84.031 117.765C84.957 129.145 88.486 138.635 94.706 148.432C88.966 137.976 86.382 128.26 86.127 116.61C85.994 110.506 83.882 104.551 80.093 99.737C83.091 102.361 85.475 105.591 87.125 109.172C105.031 115.105 133.546 113.87 138.259 137.224C135.768 113.644 107.542 111.156 90.05 104.101C80.276 100.159 77.281 91.984 83.313 82.797C82.605 85.244 82.353 87.492 82.502 89.518C87.775 94.239 93.51 97.333 95.595 104.049C97.929 104.836 100.387 105.593 102.931 106.375C103.211 106.461 103.492 106.548 103.773 106.634C103.497 100.582 101.001 94.232 97.848 89.607C97.335 89.458 96.824 89.294 96.316 89.105C91.599 87.351 87.669 83.997 84.899 79.795C88.19 83.603 92.521 86.42 97.425 87.549C98.761 87.857 100.103 88.039 101.432 88.072C106.954 88.21 112.026 90.967 115.177 95.503C115.199 95.535 115.22 95.564 115.239 95.589C119.59 101.324 125.419 107.979 132.424 110.316C124.192 106.156 119.679 97.157 115.921 88.994C116.917 90.5 117.942 92.029 119.022 93.542Z" fill="#A37D31"/>
</g>
<path d="M100.098 104.55C100.316 105.253 100.493 105.998 100.627 106.785C103.094 107.594 105.671 108.375 108.282 109.18C108.31 108.504 108.307 107.822 108.276 107.135C107.995 107.049 107.714 106.962 107.434 106.876C104.891 106.094 102.433 105.337 100.098 104.55Z" fill="#CB9F38"/>
<path d="M100.434 113.997C102.098 114.36 103.797 114.711 105.532 115.068C106.179 115.201 106.826 115.334 107.473 115.468C107.504 114.818 107.574 114.167 107.68 113.517C105.353 113.035 103.044 112.57 100.796 112.078C100.709 112.765 100.581 113.401 100.434 113.997Z" fill="#CB9F38"/>
<path d="M86.946 89.9661C86.966 89.9841 86.986 90.0011 87.006 90.0191C86.857 87.9931 87.109 85.7451 87.817 83.2981C86.664 85.0541 85.844 86.7721 85.335 88.4311C85.864 88.9611 86.401 89.4761 86.946 89.9661Z" fill="#CB9F38"/>
<path d="M100.486 87.6591C96.175 86.3471 92.366 83.7261 89.402 80.2961C92.172 84.4981 96.102 87.8521 100.819 89.6061C101.326 89.7951 101.838 89.9591 102.351 90.1081C101.822 89.3321 101.277 88.5991 100.718 87.9301C100.641 87.8381 100.563 87.7501 100.486 87.6591Z" fill="#CB9F38"/>
<path d="M107.081 129.576C106.954 129.06 106.837 128.541 106.724 128.021C105.639 127.145 104.56 126.292 103.507 125.459C104.676 126.791 105.883 128.16 107.081 129.576Z" fill="#CB9F38"/>
<path d="M89.1659 108.737C89.8759 109.046 90.6139 109.333 91.3839 109.593C91.4649 109.62 91.5469 109.646 91.6279 109.673C89.9779 106.092 87.5929 102.862 84.5959 100.238C86.6099 102.798 88.1449 105.682 89.1659 108.737Z" fill="#CB9F38"/>
<path d="M76.887 66.769C76.037 68.205 75.272 69.704 74.594 71.25C74.848 71.859 75.107 72.466 75.377 73.067C75.721 70.92 76.225 68.809 76.887 66.769Z" fill="#CB9F38"/>
<path d="M120.424 89.4961C121.022 90.7951 121.639 92.1151 122.287 93.4331C122.697 93.6391 123.107 93.8461 123.521 94.0421C122.442 92.5291 121.417 91.0001 120.424 89.4961Z" fill="#CB9F38"/>
<path d="M105.532 115.068C103.797 114.711 102.098 114.36 100.434 113.997C99.402 118.168 97.448 120.387 102.297 124.485C104.591 131.439 107.945 138.276 113.148 143.144C110.194 139.211 108.297 134.495 107.082 129.575C105.884 128.159 104.677 126.79 103.508 125.458C110.977 131.371 119.822 138.229 122.079 147.986C121.478 140.627 116.402 133.38 111.869 127.789C111.85 127.765 111.827 127.739 111.802 127.71C108.799 124.301 107.26 119.917 107.474 115.468C106.826 115.334 106.179 115.201 105.532 115.068Z" fill="#CB9F38"/>
<path d="M123.522 94.042C128.198 96.253 133.144 97.796 138.148 98.008C131.563 96.559 125.525 92.701 120.277 88.192C119.78 87.765 119.386 87.231 119.112 86.635L119.108 86.626C115.377 78.502 112.114 83.052 105.054 81.211C100.32 79.976 96.46 76.199 93.541 72.143C91.595 71.055 89.545 70.182 87.409 69.662C89.067 69.723 90.718 69.983 92.344 70.389C91.392 68.918 90.562 67.453 89.859 66.099C88.41 63.306 87.395 60.313 86.845 57.226C85.4 56.535 83.903 55.976 82.362 55.601C83.81 55.654 85.253 55.863 86.68 56.185C86.585 55.52 86.508 54.852 86.456 54.181C86.455 54.163 86.453 54.145 86.452 54.127C86.325 52.482 86.228 50.872 86.149 49.325C86.04 47.475 85.579 45.982 84.879 44.816C83.131 43.895 81.302 43.156 79.406 42.694C80.81 42.746 82.209 42.942 83.593 43.247C79.802 39.853 72.914 41.788 70.475 47.286C71.817 46.517 73.213 45.861 74.664 45.369C72.914 46.391 71.321 47.68 69.864 49.128C69.604 50.266 69.518 51.517 69.654 52.87C69.774 54.063 69.952 55.304 70.18 56.576C72.912 54.286 75.949 52.322 79.267 51.198C75.886 53.171 73.085 56.135 70.743 59.333C71.267 61.627 71.945 63.991 72.747 66.355C68.296 75.806 66.978 87.145 69.843 97.185C71.677 103.61 75.303 109.289 78.87 114.871C82.385 120.371 82.219 122.795 81.132 129.373C82.622 122.755 82.887 120.201 79.635 114.386C76.491 108.765 73.24 103.025 71.822 96.684C69.589 86.697 71.684 75.557 76.885 66.768C76.223 68.807 75.72 70.918 75.374 73.066C76.231 74.98 77.16 76.849 78.156 78.627C78.541 79.313 78.937 79.981 79.341 80.639C75.268 89.315 76.271 97.892 81.895 103.782C85.642 107.706 88.062 112.733 88.521 118.139C88.525 118.181 88.528 118.223 88.531 118.265C89.457 129.645 92.986 139.135 99.206 148.932C93.466 138.476 90.882 128.76 90.627 117.11C90.494 111.006 88.382 105.051 84.593 100.237C87.591 102.861 89.975 106.091 91.625 109.672C109.531 115.605 138.046 114.37 142.759 137.724C140.268 114.144 112.042 111.656 94.55 104.601C84.776 100.659 81.781 92.484 87.813 83.297C87.105 85.744 86.853 87.992 87.002 90.018C92.275 94.739 98.01 97.833 100.095 104.549C102.429 105.336 104.887 106.093 107.431 106.875C107.711 106.961 107.992 107.048 108.273 107.134C107.997 101.082 105.501 94.732 102.348 90.107C101.835 89.958 101.324 89.794 100.816 89.605C96.099 87.851 92.169 84.497 89.399 80.295C92.69 84.103 97.021 86.92 101.925 88.049C103.261 88.357 104.603 88.539 105.932 88.572C111.454 88.71 116.526 91.467 119.677 96.003C119.699 96.035 119.72 96.064 119.739 96.089C124.09 101.824 129.919 108.479 136.924 110.816C128.692 106.656 124.179 97.657 120.421 89.494C121.417 91 122.442 92.529 123.522 94.042Z" fill="#CB9F38"/>
</g>
<defs>
<clipPath id="clip0_5_193">
<rect width="179.869" height="179.869" fill="white"/>
</clipPath>
</defs>
</svg>
