<svg width="43" height="43" viewBox="0 0 43 43" fill="none" xmlns="http://www.w3.org/2000/svg">
<rect y="0.333008" width="42.6667" height="42.6667" rx="19" fill="white"/>
<path d="M27.8667 13.6665H14.8C14.0574 13.6665 13.3452 13.9615 12.8201 14.4866C12.295 15.0117 12 15.7239 12 16.4665V25.7998C12 26.5424 12.295 27.2546 12.8201 27.7797C13.3452 28.3048 14.0574 28.5998 14.8 28.5998H27.8667C28.6093 28.5998 29.3215 28.3048 29.8466 27.7797C30.3717 27.2546 30.6667 26.5424 30.6667 25.7998V16.4665C30.6667 15.7239 30.3717 15.0117 29.8466 14.4866C29.3215 13.9615 28.6093 13.6665 27.8667 13.6665ZM14.8 15.5332H27.8667C28.1142 15.5332 28.3516 15.6315 28.5266 15.8065C28.7017 15.9816 28.8 16.219 28.8 16.4665L21.3333 21.0212L13.8667 16.4665C13.8667 16.219 13.965 15.9816 14.14 15.8065C14.3151 15.6315 14.5525 15.5332 14.8 15.5332ZM28.8 25.7998C28.8 26.0474 28.7017 26.2848 28.5266 26.4598C28.3516 26.6348 28.1142 26.7332 27.8667 26.7332H14.8C14.5525 26.7332 14.3151 26.6348 14.14 26.4598C13.965 26.2848 13.8667 26.0474 13.8667 25.7998V18.5945L20.848 22.8598C20.9899 22.9418 21.1508 22.9849 21.3147 22.9849C21.4785 22.9849 21.6394 22.9418 21.7813 22.8598L28.8 18.5945V25.7998Z" fill="#373737"/>
</svg>
