<svg width="43" height="43" viewBox="0 0 43 43" fill="none" xmlns="http://www.w3.org/2000/svg">
<rect width="42.6667" height="42.6667" rx="19" fill="white"/>
<path d="M28.353 22.2665C28.1469 22.2665 27.9315 22.2009 27.7254 22.1541C27.3081 22.0621 26.898 21.94 26.4983 21.7888C26.0638 21.6307 25.5861 21.6389 25.1573 21.8118C24.7284 21.9847 24.3787 22.3102 24.1753 22.7255L23.9693 23.147C23.0569 22.6395 22.2186 22.0091 21.4776 21.2736C20.7421 20.5327 20.1118 19.6943 19.6043 18.782L19.9977 18.5197C20.413 18.3164 20.7384 17.9666 20.9113 17.5378C21.0842 17.1089 21.0925 16.6312 20.9344 16.1967C20.7856 15.7962 20.6636 15.3863 20.5691 14.9696C20.5222 14.7636 20.4847 14.5481 20.4566 14.3327C20.3429 13.6729 19.9973 13.0754 19.4821 12.6478C18.9669 12.2202 18.316 11.9906 17.6466 12.0003H14.8365C14.4328 11.9965 14.033 12.0797 13.6644 12.2443C13.2958 12.4089 12.9669 12.651 12.7003 12.9541C12.4336 13.2572 12.2354 13.6142 12.1191 14.0008C12.0028 14.3874 11.9712 14.7945 12.0264 15.1944C12.5254 19.1186 14.3176 22.7647 17.1198 25.5568C19.9221 28.3488 23.5746 30.1277 27.5006 30.6124H27.8565C28.5473 30.6135 29.2142 30.36 29.7299 29.9006C30.0263 29.6355 30.263 29.3106 30.4245 28.9473C30.5859 28.584 30.6685 28.1906 30.6666 27.793V24.9829C30.6552 24.3323 30.4182 23.7058 29.9963 23.2104C29.5743 22.715 28.9935 22.3813 28.353 22.2665ZM28.8213 27.8867C28.8212 28.0197 28.7927 28.1511 28.7378 28.2722C28.6829 28.3934 28.6028 28.5014 28.5029 28.5892C28.3985 28.6801 28.2762 28.7479 28.1438 28.7882C28.0115 28.8286 27.8721 28.8406 27.7348 28.8234C24.2268 28.3736 20.9683 26.7687 18.4734 24.2619C15.9785 21.7551 14.3891 18.4891 13.956 14.979C13.9411 14.8418 13.9541 14.703 13.9944 14.571C14.0346 14.4389 14.1012 14.3165 14.1902 14.2109C14.2779 14.111 14.386 14.0309 14.5071 13.976C14.6282 13.9211 14.7597 13.8926 14.8927 13.8924H17.7028C17.9206 13.8876 18.1333 13.9588 18.3043 14.0939C18.4752 14.2289 18.5938 14.4194 18.6395 14.6324C18.6769 14.8884 18.7238 15.1414 18.78 15.3911C18.8882 15.8849 19.0322 16.3702 19.2108 16.843L17.8995 17.4519C17.7873 17.5033 17.6865 17.5764 17.6027 17.6669C17.5189 17.7575 17.4538 17.8637 17.4111 17.9794C17.3685 18.0952 17.3491 18.2182 17.3542 18.3415C17.3592 18.4647 17.3885 18.5858 17.4405 18.6977C18.7886 21.5853 21.1098 23.9065 23.9974 25.2545C24.2254 25.3482 24.4812 25.3482 24.7092 25.2545C24.8261 25.2128 24.9334 25.1482 25.0251 25.0646C25.1167 24.981 25.1909 24.88 25.2432 24.7675L25.8239 23.4561C26.3082 23.6293 26.8024 23.7732 27.3039 23.887C27.5537 23.9432 27.8066 23.99 28.0626 24.0275C28.2757 24.0732 28.4661 24.1917 28.6012 24.3627C28.7362 24.5336 28.8075 24.7463 28.8026 24.9642L28.8213 27.8867Z" fill="#373737"/>
</svg>
